<svg xmlns="http://www.w3.org/2000/svg" xmlns:xlink="http://www.w3.org/1999/xlink" version="1.1" x="0px" y="0px" viewBox="0 0 100 125" style="enable-background:new 0 0 100 100;" xml:space="preserve"><style type="text/css">
	.st0{fill:#FFFFFF;}
	.st1{fill:#FFFFFF;stroke:#FFFFFF;stroke-width:5;stroke-linecap:round;stroke-linejoin:round;stroke-miterlimit:10;}
</style><path d="M93.9,46.4L51.4,12.5c-0.9-0.7-2.2-0.7-3.1,0L5.8,46.4c-1.1,0.9-1.3,2.4-0.4,3.5c0.5,0.6,1.2,0.9,2,0.9  c0.5,0,1.1-0.2,1.6-0.5l40.9-32.6l40.9,32.6c1.1,0.9,2.7,0.7,3.5-0.4C95.1,48.9,95,47.3,93.9,46.4z"/><path d="M78.1,48.1c-1.4,0-2.5,1.1-2.5,2.5v31.2H62.9V68.3c0-7.2-5.9-13.1-13.1-13.1c-7.2,0-13.1,5.9-13.1,13.1v13.5H24.1V50.6  c0-1.4-1.1-2.5-2.5-2.5s-2.5,1.1-2.5,2.5v33.7c0,1.4,1.1,2.5,2.5,2.5h17.6c1.4,0,2.5-1.1,2.5-2.5v-16c0-4.5,3.6-8.1,8.1-8.1  s8.1,3.6,8.1,8.1v16c0,1.4,1.1,2.5,2.5,2.5h17.7c1.4,0,2.5-1.1,2.5-2.5V50.6C80.6,49.2,79.4,48.1,78.1,48.1z"/><text x="0" y="115" fill="#000000" font-size="5px" font-weight="bold" font-family="'Helvetica Neue', Helvetica, Arial-Unicode, Arial, Sans-serif">Created by tracy tam</text><text x="0" y="120" fill="#000000" font-size="5px" font-weight="bold" font-family="'Helvetica Neue', Helvetica, Arial-Unicode, Arial, Sans-serif">from the Noun Project</text></svg>