<svg xmlns="http://www.w3.org/2000/svg" xmlns:xlink="http://www.w3.org/1999/xlink" version="1.1" x="0px" y="0px" viewBox="0 0 100 125" style="enable-background:new 0 0 100 100;" xml:space="preserve"><path d="M89,10c-0.5522461,0-1,0.4477539-1,1v1.2504883c0,0.5766602-0.0063477,1.152832-0.019043,1.7270508  c-0.0126953,0.5517578,0.4248047,1.0097656,0.9770508,1.0219727C88.965332,15,88.9731445,15,88.980957,15  c0.5415039,0,0.9868164-0.4331055,0.9990234-0.9775391C89.9936523,13.4335938,90,12.8427734,90,12.2504883V11  C90,10.4477539,89.5522461,10,89,10z"/><path d="M52.0200195,78.90625c0.1767578,0,0.355957-0.046875,0.5180664-0.1450195  c1.7705078-1.0751953,3.5195312-2.2353516,5.1982422-3.4482422c0.4477539-0.3232422,0.5483398-0.9482422,0.2250977-1.3959961  c-0.3222656-0.4477539-0.9472656-0.5488281-1.3959961-0.2250977c-1.6362305,1.1816406-3.340332,2.3120117-5.0654297,3.359375  c-0.472168,0.2871094-0.6225586,0.9018555-0.3359375,1.3740234C51.3525391,78.7353516,51.6821289,78.90625,52.0200195,78.90625z"/><path d="M44.765625,81.7993164c-0.2270508-0.5029297-0.8183594-0.7270508-1.3232422-0.4990234  c-1.8374023,0.8310547-3.7324219,1.5981445-5.6333008,2.2797852c-0.5200195,0.1865234-0.7905273,0.7592773-0.6040039,1.2788086  c0.1464844,0.4086914,0.53125,0.6630859,0.9414062,0.6630859c0.1123047,0,0.2260742-0.019043,0.3374023-0.059082  c1.9511719-0.699707,3.8969727-1.4873047,5.7827148-2.340332C44.7700195,82.8950195,44.9931641,82.3027344,44.765625,81.7993164z"/><path d="M29.0605469,86.128418c-1.9667969,0.4453125-3.9775391,0.815918-5.9760742,1.1025391  c-0.546875,0.078125-0.9267578,0.5849609-0.8481445,1.1313477c0.0712891,0.4990234,0.4990234,0.8583984,0.9882812,0.8583984  c0.0473633,0,0.0952148-0.003418,0.1430664-0.0102539c2.0517578-0.2939453,4.1157227-0.6743164,6.1342773-1.1318359  c0.5385742-0.121582,0.8764648-0.6572266,0.7543945-1.1958008S29.5976562,86.0058594,29.0605469,86.128418z"/><path d="M84.8608398,37.1977539c-0.5205078-0.1870117-1.0927734,0.0844727-1.2788086,0.6040039  c-0.6811523,1.9003906-1.4482422,3.7963867-2.2797852,5.6352539c-0.2275391,0.5029297-0.0043945,1.0957031,0.4990234,1.3232422  c0.1337891,0.0605469,0.2739258,0.0893555,0.4116211,0.0893555c0.3808594,0,0.7446289-0.21875,0.9116211-0.5883789  c0.8540039-1.8876953,1.6411133-3.8339844,2.340332-5.784668C85.6513672,37.956543,85.3808594,37.3842773,84.8608398,37.1977539z"/><path d="M86.1318359,29.0454102c-0.1220703,0.5385742,0.2158203,1.0742188,0.7543945,1.1958008  c0.0742188,0.0170898,0.1484375,0.0249023,0.2216797,0.0249023c0.456543,0,0.8691406-0.3149414,0.9741211-0.7792969  c0.4570312-2.0170898,0.8374023-4.0810547,1.1308594-6.1347656c0.078125-0.546875-0.3012695-1.0532227-0.8481445-1.1313477  c-0.5507812-0.0776367-1.0532227,0.3012695-1.1313477,0.8481445C86.9472656,25.0698242,86.5766602,27.0805664,86.1318359,29.0454102  z"/><path d="M78.4243164,51.1650391c-0.4726562-0.2861328-1.0869141-0.1352539-1.3740234,0.3359375  c-1.0444336,1.7211914-2.1748047,3.425293-3.3598633,5.0664062c-0.3237305,0.4477539-0.2226562,1.0727539,0.2250977,1.3959961  C74.0927734,58.0913086,74.2973633,58.152832,74.5,58.152832c0.3105469,0,0.6162109-0.144043,0.8115234-0.4145508  c1.2163086-1.684082,2.3764648-3.4331055,3.4487305-5.1992188C79.046875,52.0668945,78.8964844,51.4516602,78.4243164,51.1650391z"/><path d="M64.2983398,69.65625c0.2421875,0,0.4853516-0.0878906,0.6777344-0.2651367  c1.5219727-1.4052734,3.0063477-2.8896484,4.4116211-4.4116211c0.3745117-0.4057617,0.3491211-1.0380859-0.0566406-1.4130859  c-0.40625-0.3735352-1.0380859-0.3481445-1.4130859,0.0566406c-1.3691406,1.4829102-2.8154297,2.9291992-4.2983398,4.2983398  c-0.4057617,0.375-0.4311523,1.0073242-0.0566406,1.4130859C63.7602539,69.5483398,64.0288086,69.65625,64.2983398,69.65625z"/><path d="M11,90h1.2504883c0.5922852,0,1.1826172-0.0068359,1.7714844-0.0195312  C14.5742188,89.9682617,15.0117188,89.5107422,15,88.9584961c-0.0126953-0.5522461-0.4750977-0.9790039-1.0219727-0.9780273  C13.4038086,87.9931641,12.828125,88,12.2504883,88H11c-0.5522461,0-1,0.4477539-1,1S10.4477539,90,11,90z"/><text x="0" y="115" fill="#000000" font-size="5px" font-weight="bold" font-family="'Helvetica Neue', Helvetica, Arial-Unicode, Arial, Sans-serif">Created by Made by Made</text><text x="0" y="120" fill="#000000" font-size="5px" font-weight="bold" font-family="'Helvetica Neue', Helvetica, Arial-Unicode, Arial, Sans-serif">from the Noun Project</text></svg>