<svg xmlns="http://www.w3.org/2000/svg" data-name="Слой 1" viewBox="0 0 100 125" x="0px" y="0px"><title>doodle-01</title><g><path d="M28.79758,52.29194c0.08878-5.77484,2.87265-10.27306,6.85925-14.11358a13.14152,13.14152,0,0,1,3.84366-2.25649c0.46872-.20766,1.22373.23087,1.848,0.37422a3.63652,3.63652,0,0,1-.87325,1.40976,18.60481,18.60481,0,0,0-8.619,9.93274,11.5739,11.5739,0,0,0-.31795,8.73889c1.47811,3.87965,3.10859,7.74075,6.52887,10.485,4.19575,3.36643,8.78581,5.91642,14.285,5.43531a12.99388,12.99388,0,0,0,6.36839-2.72747A75.99018,75.99018,0,0,0,66.43059,62.18a33.4818,33.4818,0,0,0,2.59872-3.44182c2.77849-3.7132,2.53-7.55046.70264-11.59647-2.309-5.11262-6.215-8.14459-11.43739-9.97245a13.11439,13.11439,0,0,0-7.85067-.10516,37.34746,37.34746,0,0,0-9.16549,3.92105c-4.67368,2.73792-5.98486,7.245-5.48066,12.41916a14.6677,14.6677,0,0,0,4.86949,9.93549c3.12,2.75859,9.43019,5.01469,13.7304,2.08855,2.10776-1.43419,4.49871-2.47841,6.50137-4.034,2.188-1.69948,3.52017-3.98642,2.7294-6.9916-0.28277-1.07466-.40433-2.19222-0.69417-3.26457C61.3875,45.415,60.09867,44.35755,54.26571,43.516a12.26963,12.26963,0,0,0-13.12212,7.92762c-0.51217,1.35123-.07211,3.33281.53645,4.768a16.677,16.677,0,0,0,3.15634,4.38571c1.75208,1.94112,4.00756,1.68616,6.22176.95461A8.68448,8.68448,0,0,0,56.169,54.729c0.10418-1.95628-1.86558-4.05607-4.34491-4.63171a4.8232,4.8232,0,0,0-6.02247,5.49227A2.83379,2.83379,0,0,0,47.166,57.49433a1.52407,1.52407,0,0,0,2.12416-1.11253,1.023,1.023,0,0,1,.28782-0.38338c0.43091-.4115.87241-0.81189,1.30994-1.2164,0.14463,0.77037.61374,1.66719,0.37222,2.28714a3.9654,3.9654,0,0,1-4.00628,2.61414,3.71925,3.71925,0,0,1-3.0696-3.11293c-0.9055-3.68208.076-6.60555,3.63347-8.42092a5.59569,5.59569,0,0,1,2.942-.47212A8.46,8.46,0,0,1,57.7908,52.046c1.3119,2.552.43739,5.33552-1.2648,7.50221-1.85257,2.358-4.05992,4.37879-7.43241,4.48246-1.95878.06018-3.93417-.16444-5.18856-1.52832a32.1283,32.1283,0,0,1-4.43477-6.361c-1.46376-2.68293-.79217-5.41492.78643-7.87852a14.43627,14.43627,0,0,1,12.52737-7.03693,12.8902,12.8902,0,0,1,5.63735.891,10.13443,10.13443,0,0,1,4.543,3.99491,35.86256,35.86256,0,0,1,2.6802,8.62665c0.80967,3.725-1.15571,6.41408-4.02317,8.43479-2.20861,1.55641-4.57512,2.89691-6.91864,4.25167-3.31179,1.91456-6.78773,1.68624-10.16363.31164-2.89581-1.17908-5.703-2.57171-7.535-5.36035a20.94524,20.94524,0,0,1-3.31348-10.74372,13.98,13.98,0,0,1,3.72809-10.18734c2.21281-2.60911,5.47932-3.73665,8.55346-5.11522,3.03692-1.362,6.26782-1.56635,9.44872-2.10258a3.70561,3.70561,0,0,1,2.02075.31388c2.75922,1.25215,5.76561,2.21485,8.12613,4.0129a19.04592,19.04592,0,0,1,4.849,6.23282,34.57235,34.57235,0,0,1,2.61875,7.60675,7.50728,7.50728,0,0,1-1.35305,5.801c-3.82227,6.04932-8.19867,11.52152-14.931,14.75132a12.48386,12.48386,0,0,1-8.784,1.22068c-6.99114-1.76709-12.78887-5.23492-16.10667-11.9492-1.33691-2.70548-3.05418-5.29887-3.06312-8.4934C28.79642,53.24674,28.79758,52.76936,28.79758,52.29194Z"/><path d="M50.642,13.01061a21.35733,21.35733,0,0,1-4.97557,13.073c-0.82768,1.05541-1.68578,2.08829-2.56253,3.10336a1.08856,1.08856,0,0,1-1.88729.05141c-1.43211-2.06266-2.89018-4.1231-4.11963-6.30731-2.474-4.39514-1.52848-8.96448-.11488-13.37429,0.88879-2.77261,2.57347-5.16128,5.797-5.76889a4.30939,4.30939,0,0,1,1.7279-.047,8.16633,8.16633,0,0,1,6.13314,7.62516C50.6536,11.91394,50.642,12.4624,50.642,13.01061ZM42.49931,26.16117a2.20019,2.20019,0,0,0,.61431-0.16941c3.51429-4.16951,5.68564-8.8636,5.54491-14.43171A6.20406,6.20406,0,0,0,44.16061,5.94c-1.029-.25791-1.6159-0.05495-1.61128,1.1779,0.01415,3.77574-.03417,7.55159-0.04823,11.32748C42.4917,20.96641,42.49931,23.48757,42.49931,26.16117Zm-1.89855-18.825c-4.08535,5.56468-3.85092,13.65871,0,18.12487V7.33614Z"/><path d="M20.66956,50.89145a10.6144,10.6144,0,0,1,6.23594,2.4748c0.65412,0.55583.49962,2.389,0.2931,3.56671-0.48312,2.75478-2.32945,4.8077-4.32136,6.55416a19.24269,19.24269,0,0,1-5.81373,3.78544c-3.14709,1.142-6.41307,2.45021-9.94226,1.4655-3.35159-.93513-4.60914-3.66625-3.35536-6.93554a13.87749,13.87749,0,0,1,10.27987-9.1951C16.26571,52.08652,18.46235,51.46645,20.66956,50.89145ZM5.4915,64.391c6.737-3.03731,12.58416-6.85064,19.07215-10.25966-4.19663-1.87379-7.80549-.28277-11.38913.79515C8.80841,56.23986,6.63469,59.56261,5.4915,64.391Zm1.22377,1.80779c4.72031,2.34268,17.513-2.7809,18.2478-9.80667C18.86323,59.67033,12.85417,62.8997,6.71526,66.19884Z"/><path d="M28.80182,33.49547c-0.15922,1.28016-.30695,2.65613-0.5063,4.0246-0.27391,1.88058-1.43787,2.58413-3.30853,2.07311a17.617,17.617,0,0,1-7.36513-4.27948c-1.599-1.47913-3.37463-2.76747-4.973-4.24723a8.48253,8.48253,0,0,1-1.8115-10.51474c2.43814-4.01306,6.64568-5.62026,11.15081-2.44753C27.35476,21.88348,28.24047,27.51081,28.80182,33.49547ZM26.2679,35.0899a39.66375,39.66375,0,0,0-.0349-5.04769c-0.50476-3.63278-1.42084-7.18154-4.56645-9.514-2.65953-1.97215-5.27675-2.49688-7.7993-.29228-1.59127,1.39075-1.52826,1.70683.14514,2.9959,3.19451,2.46085,6.81753,4.41352,9.201,7.83747C24.09021,32.3288,25.06825,33.51782,26.2679,35.0899ZM11.67107,24.61633a20.31622,20.31622,0,0,0,1.15484,3.39228c1.7937,3.29172,5.1866,4.95109,7.87023,7.32508,1.27193,1.12518,3.028,1.70317,4.56471,2.529C21.7128,32.42626,17.89727,27.44662,11.67107,24.61633Z"/><path d="M96.71027,42.127a50.39131,50.39131,0,0,1-1.57269,5.28143c-0.90831,2.247-3.13945,2.89577-5.20082,3.61664-4.864,1.70093-9.18706-.07519-13.39342-2.25429-0.76314-.3954-1.98663-1.026-0.81073-2.29173-0.94982-4.4002,2.35683-6.3185,5.0601-8.521a24.47917,24.47917,0,0,1,4.99556-3.415c3.03521-1.40108,6.1372-.56939,8.7801,1.06327C96.601,36.862,96.38376,39.40666,96.71027,42.127ZM77.03813,45.69417l0.4657,0.28206a6.22691,6.22691,0,0,0,.71213-0.2469c4.43546-2.14744,8.874-4.28864,13.29685-6.46185,1.10912-.545,1.908-0.40726,2.56484.952A11.4725,11.4725,0,0,1,92.286,41.45723c-1.97924.87683-4.0404,1.57562-5.99124,2.50784-2.37969,1.13713-4.67969,2.44093-7.01415,3.67266l0.08788,0.50685c3.06292,1.19444,6.14531,2.376,9.54526,1.11037,1.72462-.642,3.618-1.11811,4.49706-3.02584a9.74855,9.74855,0,0,0,.49359-7.7501,2.865,2.865,0,0,0-1.24691-1.56422c-2.17569-.93772-4.52748-1.75986-6.71873-0.30587a56.516,56.516,0,0,0-7.02823,5.44348C77.9677,42.92,77.64339,44.45973,77.03813,45.69417Z"/><path d="M80.06146,62.85079c4.23743,0.6304,7.49917,1.94477,9.62007,5.26246,1.59773,2.49931.82189,6.01538-1.98622,8.31077-5.97185,4.88155-13.23092,2.33392-15.74549-3.25836a37.992,37.992,0,0,1-2.00733-6.52227,1.83619,1.83619,0,0,1,.86838-1.57483C74.011,64.207,77.254,63.50452,80.06146,62.85079ZM87.048,74.23622C82.17694,72.48449,77.54834,70.82,72.78591,69.1073c0.59035,3.84751,2.51381,6.32113,5.97256,7.43614C81.811,77.52751,84.52618,76.89318,87.048,74.23622ZM72.8998,66.91982c5.30048,1.74521,10.28991,3.388,15.28162,5.03158,0.97514-3.13163-1.99777-5.51989-5.28768-6.4171C79.56814,64.62731,76.38972,65.7099,72.8998,66.91982Z"/><path d="M50.93691,88.39046c0.19844-4.13142,1.17462-7.367,3.35972-10.19736a1.227,1.227,0,0,0,.18255-0.709c-0.001-1.22218.76406-1.7753,1.873-1.2558a7.8852,7.8852,0,0,1,1.58872,1.06681c2.26928,1.85057,4.48791,3.76454,6.78478,5.57972,4.21482,3.33092,2.49028,8.63207-.76919,11.09925a13.1161,13.1161,0,0,1-8.63266,2.3419c-2.055-.06926-3.03014-1.90761-3.591-3.65093A28.71876,28.71876,0,0,1,50.93691,88.39046Zm10.51923,5.19929c1.12522-1.07706,1.92592-1.75059,2.61571-2.52312a4.693,4.693,0,0,0-.14633-6.34124c-2.11662-1.95067-4.46086-3.65439-6.87577-5.60227C58.51019,83.91789,59.898,88.47437,61.45615,93.58974ZM55.3695,80.33795A14.182,14.182,0,0,0,53.74266,91.8606c0.59145,2.024,1.154,2.543,3.26062,2.40224a17.96124,17.96124,0,0,0,2.12715-.40561C57.87944,89.36035,56.66573,84.99743,55.3695,80.33795Z"/><path d="M24.29793,87.50031a45.91673,45.91673,0,0,1,2.81869-6.01177c1.56711-2.49141,3.17461-5.0768,5.85522-6.60877a4.62632,4.62632,0,0,1,2.65774-.92283c0.9748,0.18656.88887,1.33363,1.00721,2.35054a12.48532,12.48532,0,0,0,1.67188,4.25025c1.89323,3.5011,2.09747,7.10886.11194,10.47557-1.78758,3.03114-4.95018,4.1885-8.37338,3.975C26.83587,94.808,24.595,92.06861,24.29793,87.50031Zm8.78516-9.598-0.67787-.57477a19.296,19.296,0,0,0-1.74662,2.43257,68.35474,68.35474,0,0,0-3.80051,7.99767,4.37414,4.37414,0,0,0,2.06858,4.94138c2.44744,0.89254,6.762-.00786,8.16944-3.44225,1.70551-4.162-.34219-7.3624-2.413-10.71265a62.71305,62.71305,0,0,0-1.40023,7.73713c-0.18035,1.58556.05172,3.22093-.16272,4.79839-0.084.61779-.88231,1.13842-1.35531,1.70333-0.32854-.48634-0.98759-1.01346-0.9334-1.45262,0.44118-3.57527.99655-7.13714,1.56279-10.69584C32.54124,79.71077,32.84911,78.81246,33.08309,77.90236Z"/><path d="M76.63694,21.33369c-0.11151,5.07322-2.116,6.51468-6.30966,8.01385-2.33251.83381-4.71919,1.51477-7.06628,2.30945-1.32117.44729-3.79546-1.18144-3.54062-2.57666,0.69463-3.80339,1.4216-7.618,2.46388-11.33613,1.08922-3.88562,5.06254-4.45748,8.1664-4.41647C74.52975,13.38293,76.61465,17.54527,76.63694,21.33369Zm-3.88619-4.6354c-3.69723,3.97515-7.43062,7.91611-10.13207,12.73568,2.84493-.70079,5.58467-1.49383,8.2781-2.42133C74.67549,25.71135,75.68781,19.191,72.75075,16.6983ZM61.81316,25.73319l0.52991,0.123c2.73042-3.41864,5.46086-6.83729,8.32687-10.42568-4.16925-.37442-5.82648.2361-6.97914,3.11246A55.78273,55.78273,0,0,0,61.81316,25.73319Z"/></g><text x="0" y="115" fill="#000000" font-size="5px" font-weight="bold" font-family="'Helvetica Neue', Helvetica, Arial-Unicode, Arial, Sans-serif">Created by Tatyana</text><text x="0" y="120" fill="#000000" font-size="5px" font-weight="bold" font-family="'Helvetica Neue', Helvetica, Arial-Unicode, Arial, Sans-serif">from the Noun Project</text></svg>